<svg width="19" height="19" viewBox="0 0 19 19" fill="none" xmlns="http://www.w3.org/2000/svg">
<g clip-path="url(#clip0_92_307)">
<path d="M4.53125 14.525H7.84175L18.074 4.29272C18.5123 3.85335 18.7584 3.25808 18.7584 2.63747C18.7584 2.01687 18.5123 1.42159 18.074 0.982222C17.6283 0.556142 17.0354 0.318359 16.4187 0.318359C15.8021 0.318359 15.2092 0.556142 14.7635 0.982222L4.53125 11.2145V14.525ZM6.03125 11.8355L15.824 2.04272C15.9842 1.88969 16.1972 1.80429 16.4187 1.80429C16.6403 1.80429 16.8533 1.88969 17.0135 2.04272C17.171 2.20061 17.2594 2.41449 17.2594 2.63747C17.2594 2.86045 17.171 3.07434 17.0135 3.23222L7.22075 13.025H6.03125V11.8355Z" fill="#5F5E5B"/>
<path d="M18.497 5.99165L17.2812 7.2074V12.2751H12.7812V16.7751H2.28125V2.52515C2.28125 2.32623 2.36027 2.13547 2.50092 1.99482C2.64157 1.85416 2.83234 1.77515 3.03125 1.77515H11.8498L13.0655 0.559396C13.175 0.457864 13.2905 0.362946 13.4113 0.275146L3.03125 0.275146C2.43451 0.275146 1.86222 0.512199 1.44026 0.934156C1.0183 1.35611 0.78125 1.92841 0.78125 2.52515L0.78125 18.2751H14.5917L18.7812 14.0856V5.6459C18.6933 5.76654 18.5984 5.88199 18.497 5.99165V5.99165ZM14.2812 16.4646V13.7751H16.9708L14.2812 16.4646Z" fill="#5F5E5B"/>
</g>
<defs>
<clipPath id="clip0_92_307">
<rect width="18" height="18" fill="white" transform="translate(0.78125 0.275146)"/>
</clipPath>
</defs>
</svg>
