<svg width="21" height="21" viewBox="0 0 21 21" fill="none" xmlns="http://www.w3.org/2000/svg">
<g clip-path="url(#clip0_82_214)">
<path d="M19.1149 3.60848H14.9482V1.94181C14.9482 1.49979 14.7726 1.07586 14.4601 0.763302C14.1475 0.450741 13.7236 0.275146 13.2816 0.275146L8.28158 0.275146C7.83955 0.275146 7.41562 0.450741 7.10306 0.763302C6.7905 1.07586 6.61491 1.49979 6.61491 1.94181V3.60848H2.44824V5.27515H4.11491V17.7751C4.11491 18.4382 4.3783 19.0741 4.84714 19.5429C5.31598 20.0118 5.95187 20.2751 6.61491 20.2751H14.9482C15.6113 20.2751 16.2472 20.0118 16.716 19.5429C17.1849 19.0741 17.4482 18.4382 17.4482 17.7751V5.27515H19.1149V3.60848ZM8.28158 1.94181H13.2816V3.60848H8.28158V1.94181ZM15.7816 17.7751C15.7816 17.9962 15.6938 18.2081 15.5375 18.3644C15.3812 18.5207 15.1693 18.6085 14.9482 18.6085H6.61491C6.3939 18.6085 6.18193 18.5207 6.02565 18.3644C5.86937 18.2081 5.78158 17.9962 5.78158 17.7751V5.27515H15.7816V17.7751Z" fill="#374957"/>
<path d="M9.94791 8.60791H8.28125V15.2746H9.94791V8.60791Z" fill="#374957"/>
<path d="M13.2819 8.60791H11.6152V15.2746H13.2819V8.60791Z" fill="#374957"/>
</g>
<defs>
<clipPath id="clip0_82_214">
<rect width="20" height="20" fill="white" transform="translate(0.78125 0.275146)"/>
</clipPath>
</defs>
</svg>
