<svg width="24" height="24" viewBox="0 0 24 24" fill="none" xmlns="http://www.w3.org/2000/svg">
<path d="M16.8942 9.27632L16.8943 9.27644C16.974 9.35546 17.0372 9.44947 17.0804 9.55305C17.1235 9.65663 17.1457 9.76773 17.1457 9.87994C17.1457 9.99215 17.1235 10.1033 17.0804 10.2068C17.0372 10.3104 16.974 10.4044 16.8943 10.4834L12.6045 14.7233L12.6045 14.7233L12.6034 14.7243C12.5244 14.804 12.4304 14.8672 12.3268 14.9104C12.2233 14.9535 12.1122 14.9757 11.9999 14.9757C11.8877 14.9757 11.7766 14.9535 11.6731 14.9104C11.5695 14.8672 11.4755 14.804 11.3964 14.7243L11.396 14.7239L7.15601 10.4839L7.15602 10.4839L7.15558 10.4834C7.07591 10.4044 7.01267 10.3104 6.96952 10.2068C6.92637 10.1033 6.90415 9.99215 6.90415 9.87994C6.90415 9.76773 6.92637 9.65663 6.96952 9.55305C7.01267 9.44947 7.07591 9.35546 7.15558 9.27644L7.1557 9.27632C7.31496 9.11801 7.53039 9.02915 7.75495 9.02915C7.97943 9.02915 8.1948 9.11795 8.35404 9.27617C8.3541 9.27622 8.35415 9.27627 8.3542 9.27632L11.8939 12.816L11.9992 12.9213L12.1053 12.8168L15.6953 9.27675L15.6957 9.27632C15.855 9.11801 16.0704 9.02915 16.2949 9.02915C16.5195 9.02915 16.7349 9.11801 16.8942 9.27632Z" fill="#9C9B98" stroke="#EFEFED" stroke-width="0.3"/>
</svg>
