<svg width="60" height="60" viewBox="0 0 60 60" fill="none" xmlns="http://www.w3.org/2000/svg">
<mask id="mask0_222_136" style="mask-type:alpha" maskUnits="userSpaceOnUse" x="0" y="0" width="60" height="60">
<path d="M30 7.5C17.5928 7.5 7.5 17.5928 7.5 30C7.5 42.4072 17.5928 52.5 30 52.5C42.4072 52.5 52.5 42.4072 52.5 30C52.5 17.5928 42.4072 7.5 30 7.5ZM30 11.25C40.3784 11.25 48.75 19.6216 48.75 30C48.75 40.3784 40.3784 48.75 30 48.75C19.6216 48.75 11.25 40.3784 11.25 30C11.25 19.6216 19.6216 11.25 30 11.25ZM28.125 15V31.875H41.25V28.125H31.875V15H28.125Z" fill="black"/>
</mask>
<g mask="url(#mask0_222_136)">
<rect x="-7" y="-2" width="74" height="65" fill="#787774"/>
</g>
</svg>
