<svg width="25" height="25" viewBox="0 0 25 25" fill="none" xmlns="http://www.w3.org/2000/svg">
<mask id="mask0_252_174" style="mask-type:alpha" maskUnits="userSpaceOnUse" x="0" y="0" width="25" height="25">
<rect x="0.518188" y="0.47554" width="24" height="24" fill="#D9D9D9"/>
</mask>
<g mask="url(#mask0_252_174)">
<path d="M8.51819 18.4755H16.5182V16.4755H8.51819V18.4755ZM8.51819 14.4755H16.5182V12.4755H8.51819V14.4755ZM6.51819 22.4755C5.96819 22.4755 5.49736 22.2797 5.10569 21.888C4.71402 21.4964 4.51819 21.0255 4.51819 20.4755V4.47554C4.51819 3.92554 4.71402 3.45471 5.10569 3.06304C5.49736 2.67137 5.96819 2.47554 6.51819 2.47554H14.5182L20.5182 8.47554V20.4755C20.5182 21.0255 20.3224 21.4964 19.9307 21.888C19.539 22.2797 19.0682 22.4755 18.5182 22.4755H6.51819ZM13.5182 9.47554V4.47554H6.51819V20.4755H18.5182V9.47554H13.5182Z" fill="#1C1B1F"/>
</g>
</svg>
